<mxfile host="Electron" modified="2024-04-01T09:57:54.084Z" agent="Mozilla/5.0 (Windows NT 10.0; Win64; x64) AppleWebKit/537.36 (KHTML, like Gecko) draw.io/23.1.5 Chrome/120.0.6099.109 Electron/28.1.0 Safari/537.36" etag="cPwHbg0cTeUw_0u5_-HY" version="23.1.5" type="device">
  <diagram id="_3YMXWk1O7fOL23-tycj" name="update_product">
    <mxGraphModel dx="3400" dy="1653" grid="0" gridSize="10" guides="1" tooltips="1" connect="1" arrows="1" fold="1" page="0" pageScale="1" pageWidth="827" pageHeight="1169" math="0" shadow="0">
      <root>
        <mxCell id="0" />
        <mxCell id="1" parent="0" />
        <mxCell id="GUXFYIeslKSo6RAllSsy-8" value=":View" style="shape=umlLifeline;perimeter=lifelinePerimeter;whiteSpace=wrap;html=1;container=1;dropTarget=0;collapsible=0;recursiveResize=0;outlineConnect=0;portConstraint=eastwest;newEdgeStyle={&quot;curved&quot;:0,&quot;rounded&quot;:0};" parent="1" vertex="1">
          <mxGeometry x="-339" y="112" width="100" height="1031" as="geometry" />
        </mxCell>
        <mxCell id="GUXFYIeslKSo6RAllSsy-9" value=":ProductController" style="shape=umlLifeline;perimeter=lifelinePerimeter;whiteSpace=wrap;html=1;container=1;dropTarget=0;collapsible=0;recursiveResize=0;outlineConnect=0;portConstraint=eastwest;newEdgeStyle={&quot;curved&quot;:0,&quot;rounded&quot;:0};" parent="1" vertex="1">
          <mxGeometry x="-106" y="112" width="100" height="1007" as="geometry" />
        </mxCell>
        <mxCell id="GUXFYIeslKSo6RAllSsy-21" value="" style="html=1;points=[[0,0,0,0,5],[0,1,0,0,-5],[1,0,0,0,5],[1,1,0,0,-5]];perimeter=orthogonalPerimeter;outlineConnect=0;targetShapes=umlLifeline;portConstraint=eastwest;newEdgeStyle={&quot;curved&quot;:0,&quot;rounded&quot;:0};" parent="GUXFYIeslKSo6RAllSsy-9" vertex="1">
          <mxGeometry x="45" y="176" width="10" height="66" as="geometry" />
        </mxCell>
        <mxCell id="GUXFYIeslKSo6RAllSsy-10" value=":Create&lt;span style=&quot;background-color: initial;&quot;&gt;ProductService&lt;/span&gt;" style="shape=umlLifeline;perimeter=lifelinePerimeter;whiteSpace=wrap;html=1;container=1;dropTarget=0;collapsible=0;recursiveResize=0;outlineConnect=0;portConstraint=eastwest;newEdgeStyle={&quot;curved&quot;:0,&quot;rounded&quot;:0};" parent="1" vertex="1">
          <mxGeometry x="126" y="112" width="164" height="995" as="geometry" />
        </mxCell>
        <mxCell id="GUXFYIeslKSo6RAllSsy-23" value="" style="html=1;points=[[0,0,0,0,5],[0,1,0,0,-5],[1,0,0,0,5],[1,1,0,0,-5]];perimeter=orthogonalPerimeter;outlineConnect=0;targetShapes=umlLifeline;portConstraint=eastwest;newEdgeStyle={&quot;curved&quot;:0,&quot;rounded&quot;:0};" parent="GUXFYIeslKSo6RAllSsy-10" vertex="1">
          <mxGeometry x="77" y="252" width="10" height="66" as="geometry" />
        </mxCell>
        <mxCell id="GUXFYIeslKSo6RAllSsy-11" value=":ProductModel" style="shape=umlLifeline;perimeter=lifelinePerimeter;whiteSpace=wrap;html=1;container=1;dropTarget=0;collapsible=0;recursiveResize=0;outlineConnect=0;portConstraint=eastwest;newEdgeStyle={&quot;curved&quot;:0,&quot;rounded&quot;:0};" parent="1" vertex="1">
          <mxGeometry x="426" y="112" width="100" height="999" as="geometry" />
        </mxCell>
        <mxCell id="h37y9KqptHhNQnfBmGQ4-1" value="" style="html=1;points=[[0,0,0,0,5],[0,1,0,0,-5],[1,0,0,0,5],[1,1,0,0,-5]];perimeter=orthogonalPerimeter;outlineConnect=0;targetShapes=umlLifeline;portConstraint=eastwest;newEdgeStyle={&quot;curved&quot;:0,&quot;rounded&quot;:0};" vertex="1" parent="GUXFYIeslKSo6RAllSsy-11">
          <mxGeometry x="45" y="310" width="10" height="80" as="geometry" />
        </mxCell>
        <mxCell id="GUXFYIeslKSo6RAllSsy-13" value="" style="shape=umlLifeline;perimeter=lifelinePerimeter;whiteSpace=wrap;html=1;container=1;dropTarget=0;collapsible=0;recursiveResize=0;outlineConnect=0;portConstraint=eastwest;newEdgeStyle={&quot;curved&quot;:0,&quot;rounded&quot;:0};participant=umlActor;" parent="1" vertex="1">
          <mxGeometry x="-521" y="112" width="20" height="1048" as="geometry" />
        </mxCell>
        <mxCell id="GUXFYIeslKSo6RAllSsy-15" value="1.&amp;nbsp;createProduct()" style="html=1;verticalAlign=bottom;endArrow=block;curved=0;rounded=0;fontSize=12;startSize=8;endSize=8;" parent="1" edge="1">
          <mxGeometry width="80" relative="1" as="geometry">
            <mxPoint x="-512" y="216" as="sourcePoint" />
            <mxPoint x="-290" y="216" as="targetPoint" />
          </mxGeometry>
        </mxCell>
        <mxCell id="GUXFYIeslKSo6RAllSsy-16" value="2.&amp;nbsp;createProduct()" style="html=1;verticalAlign=bottom;endArrow=block;curved=0;rounded=0;fontSize=12;startSize=8;endSize=8;" parent="1" source="GUXFYIeslKSo6RAllSsy-19" edge="1">
          <mxGeometry x="0.0043" width="80" relative="1" as="geometry">
            <mxPoint x="-289" y="283" as="sourcePoint" />
            <mxPoint x="-56" y="283" as="targetPoint" />
            <mxPoint as="offset" />
          </mxGeometry>
        </mxCell>
        <mxCell id="GUXFYIeslKSo6RAllSsy-17" value="3.create()&amp;nbsp;" style="html=1;verticalAlign=bottom;endArrow=block;curved=0;rounded=0;fontSize=12;startSize=8;endSize=8;" parent="1" edge="1">
          <mxGeometry width="80" relative="1" as="geometry">
            <mxPoint x="-58" y="356" as="sourcePoint" />
            <mxPoint x="206" y="356" as="targetPoint" />
          </mxGeometry>
        </mxCell>
        <mxCell id="GUXFYIeslKSo6RAllSsy-18" value="4. Product()" style="html=1;verticalAlign=bottom;endArrow=block;curved=0;rounded=0;fontSize=12;startSize=8;endSize=8;" parent="1" edge="1">
          <mxGeometry width="80" relative="1" as="geometry">
            <mxPoint x="208" y="433" as="sourcePoint" />
            <mxPoint x="476" y="433" as="targetPoint" />
          </mxGeometry>
        </mxCell>
        <mxCell id="GUXFYIeslKSo6RAllSsy-19" value="" style="html=1;points=[[0,0,0,0,5],[0,1,0,0,-5],[1,0,0,0,5],[1,1,0,0,-5]];perimeter=orthogonalPerimeter;outlineConnect=0;targetShapes=umlLifeline;portConstraint=eastwest;newEdgeStyle={&quot;curved&quot;:0,&quot;rounded&quot;:0};" parent="1" vertex="1">
          <mxGeometry x="-294" y="216" width="10" height="66" as="geometry" />
        </mxCell>
        <mxCell id="GUXFYIeslKSo6RAllSsy-24" value="Database" style="shape=umlLifeline;perimeter=lifelinePerimeter;whiteSpace=wrap;html=1;container=1;dropTarget=0;collapsible=0;recursiveResize=0;outlineConnect=0;portConstraint=eastwest;newEdgeStyle={&quot;curved&quot;:0,&quot;rounded&quot;:0};" parent="1" vertex="1">
          <mxGeometry x="670" y="112" width="100" height="1002" as="geometry" />
        </mxCell>
        <mxCell id="GUXFYIeslKSo6RAllSsy-26" value="return" style="html=1;verticalAlign=bottom;endArrow=open;dashed=1;endSize=8;curved=0;rounded=0;fontSize=12;" parent="1" source="GUXFYIeslKSo6RAllSsy-24" edge="1">
          <mxGeometry relative="1" as="geometry">
            <mxPoint x="558" y="494" as="sourcePoint" />
            <mxPoint x="478" y="494" as="targetPoint" />
          </mxGeometry>
        </mxCell>
        <mxCell id="GUXFYIeslKSo6RAllSsy-32" value="" style="whiteSpace=wrap;html=1;fillColor=none;" parent="1" vertex="1">
          <mxGeometry x="-579" y="524" width="1174" height="381" as="geometry" />
        </mxCell>
        <mxCell id="GUXFYIeslKSo6RAllSsy-33" value="" style="html=1;verticalAlign=bottom;endArrow=open;dashed=1;endSize=8;curved=0;rounded=0;fontSize=12;" parent="1" edge="1">
          <mxGeometry relative="1" as="geometry">
            <mxPoint x="476" y="589" as="sourcePoint" />
            <mxPoint x="208" y="589" as="targetPoint" />
            <Array as="points">
              <mxPoint x="423" y="589" />
            </Array>
            <mxPoint as="offset" />
          </mxGeometry>
        </mxCell>
        <mxCell id="GUXFYIeslKSo6RAllSsy-39" value="return error" style="edgeLabel;html=1;align=center;verticalAlign=middle;resizable=0;points=[];fontSize=12;" parent="GUXFYIeslKSo6RAllSsy-33" vertex="1" connectable="0">
          <mxGeometry x="0.0299" y="-1" relative="1" as="geometry">
            <mxPoint x="-2" y="-10" as="offset" />
          </mxGeometry>
        </mxCell>
        <mxCell id="GUXFYIeslKSo6RAllSsy-34" value="return success" style="html=1;verticalAlign=bottom;endArrow=open;dashed=1;endSize=8;curved=0;rounded=0;fontSize=12;" parent="1" edge="1">
          <mxGeometry relative="1" as="geometry">
            <mxPoint x="473" y="694" as="sourcePoint" />
            <mxPoint x="205" y="694" as="targetPoint" />
            <Array as="points">
              <mxPoint x="420" y="694" />
            </Array>
            <mxPoint as="offset" />
          </mxGeometry>
        </mxCell>
        <mxCell id="GUXFYIeslKSo6RAllSsy-35" value="alt" style="text;html=1;align=center;verticalAlign=middle;resizable=0;points=[];autosize=1;strokeColor=none;fillColor=none;fontSize=16;" parent="1" vertex="1">
          <mxGeometry x="-579" y="524" width="35" height="31" as="geometry" />
        </mxCell>
        <mxCell id="GUXFYIeslKSo6RAllSsy-38" value="" style="endArrow=none;dashed=1;html=1;dashPattern=1 3;strokeWidth=2;rounded=0;fontSize=12;startSize=8;endSize=8;curved=1;exitX=0;exitY=0.5;exitDx=0;exitDy=0;entryX=1;entryY=0.5;entryDx=0;entryDy=0;" parent="1" edge="1">
          <mxGeometry width="50" height="50" relative="1" as="geometry">
            <mxPoint x="-582" y="662" as="sourcePoint" />
            <mxPoint x="592" y="662" as="targetPoint" />
          </mxGeometry>
        </mxCell>
        <mxCell id="GUXFYIeslKSo6RAllSsy-40" value="return create()" style="html=1;verticalAlign=bottom;endArrow=open;dashed=1;endSize=8;curved=0;rounded=0;fontSize=12;" parent="1" edge="1">
          <mxGeometry relative="1" as="geometry">
            <mxPoint x="208" y="777" as="sourcePoint" />
            <mxPoint x="-60" y="777" as="targetPoint" />
            <Array as="points">
              <mxPoint x="155" y="777" />
            </Array>
            <mxPoint as="offset" />
          </mxGeometry>
        </mxCell>
        <mxCell id="GUXFYIeslKSo6RAllSsy-41" value="" style="html=1;verticalAlign=bottom;endArrow=open;dashed=1;endSize=8;curved=0;rounded=0;fontSize=12;" parent="1" edge="1">
          <mxGeometry relative="1" as="geometry">
            <mxPoint x="209" y="605" as="sourcePoint" />
            <mxPoint x="-59" y="605" as="targetPoint" />
            <Array as="points">
              <mxPoint x="156" y="605" />
            </Array>
            <mxPoint as="offset" />
          </mxGeometry>
        </mxCell>
        <mxCell id="GUXFYIeslKSo6RAllSsy-42" value="return error" style="edgeLabel;html=1;align=center;verticalAlign=middle;resizable=0;points=[];fontSize=12;" parent="GUXFYIeslKSo6RAllSsy-41" vertex="1" connectable="0">
          <mxGeometry x="0.0299" y="-1" relative="1" as="geometry">
            <mxPoint x="-2" y="-10" as="offset" />
          </mxGeometry>
        </mxCell>
        <mxCell id="GUXFYIeslKSo6RAllSsy-43" value="" style="html=1;verticalAlign=bottom;endArrow=open;dashed=1;endSize=8;curved=0;rounded=0;fontSize=12;" parent="1" edge="1">
          <mxGeometry relative="1" as="geometry">
            <mxPoint x="-58" y="620" as="sourcePoint" />
            <mxPoint x="-284" y="624" as="targetPoint" />
            <Array as="points">
              <mxPoint x="-111" y="620" />
            </Array>
            <mxPoint as="offset" />
          </mxGeometry>
        </mxCell>
        <mxCell id="GUXFYIeslKSo6RAllSsy-44" value="return error" style="edgeLabel;html=1;align=center;verticalAlign=middle;resizable=0;points=[];fontSize=12;" parent="GUXFYIeslKSo6RAllSsy-43" vertex="1" connectable="0">
          <mxGeometry x="0.0299" y="-1" relative="1" as="geometry">
            <mxPoint x="-2" y="-10" as="offset" />
          </mxGeometry>
        </mxCell>
        <mxCell id="GUXFYIeslKSo6RAllSsy-47" value="return data" style="html=1;verticalAlign=bottom;endArrow=open;dashed=1;endSize=8;curved=0;rounded=0;fontSize=12;" parent="1" edge="1">
          <mxGeometry relative="1" as="geometry">
            <mxPoint x="-53" y="810" as="sourcePoint" />
            <mxPoint x="-289" y="810" as="targetPoint" />
            <Array as="points">
              <mxPoint x="-106" y="810" />
            </Array>
            <mxPoint as="offset" />
          </mxGeometry>
        </mxCell>
        <mxCell id="GUXFYIeslKSo6RAllSsy-48" value="return success" style="html=1;verticalAlign=bottom;endArrow=open;dashed=1;endSize=8;curved=0;rounded=0;fontSize=12;" parent="1" edge="1">
          <mxGeometry x="-0.0001" relative="1" as="geometry">
            <mxPoint x="-290" y="845" as="sourcePoint" />
            <mxPoint x="-508" y="847" as="targetPoint" />
            <Array as="points">
              <mxPoint x="-343" y="845" />
            </Array>
            <mxPoint as="offset" />
          </mxGeometry>
        </mxCell>
      </root>
    </mxGraphModel>
  </diagram>
</mxfile>
